Coordinates
version=1
nRows=16
nColumns=36
inDegrees=yes

Units are S.I. units (second, meters, Newtons, ...)
If the header above contains a line with 'inDegrees', this indicates whether rotational values are in degrees (yes) or radians (no).

endheader
time	pelvis_tilt	pelvis_list	pelvis_rotation	pelvis_tx	pelvis_ty	pelvis_tz	hip_flexion_r	hip_adduction_r	hip_rotation_r	knee_angle_r	knee_angle_r_beta	ankle_angle_r	subtalar_angle_r	mtp_angle_r	hip_flexion_l	hip_adduction_l	hip_rotation_l	knee_angle_l	knee_angle_l_beta	ankle_angle_l	subtalar_angle_l	mtp_angle_l	lumbar_extension	lumbar_bending	lumbar_rotation	arm_flex_r	arm_add_r	arm_rot_r	elbow_flex_r	pro_sup_r	arm_flex_l	arm_add_l	arm_rot_l	elbow_flex_l	pro_sup_l
      1.16000000	      3.51610458	      5.51191835	     92.79247547	     -0.23730041	      0.96096589	     -0.39620389	      9.48068585	      5.38185146	    -11.41479116	     20.04005867	      0.34976501	      3.46518654	     -3.21846080	     -7.50000198	      4.76941107	     -7.23462337	     -2.34268000	     63.75513381	      1.11273700	    -28.76750088	    -24.46261857	     -7.50000198	    -16.70610765	      5.69767749	     -0.66968086	     -0.42239059	     -6.13911952	    -23.78986339	     58.71010557	    104.35750708	     14.61743091	     -3.43152721	    -25.51748204	     37.12554297	     90.24582937
      1.17000000	      3.20938925	      5.36320302	     92.92318670	     -0.23681339	      0.96271360	     -0.40590351	      8.69885029	      5.15277152	    -11.31801689	     19.54715186	      0.34116216	      3.93272909	     -2.94757001	     -7.50000191	      6.80205908	     -6.79852495	     -2.22019466	     65.21020886	      1.13813285	    -25.30602986	    -26.11645021	     -7.50000191	    -16.82513475	      5.32423869	     -0.48170789	      0.15227330	     -6.18414898	    -23.56371029	     59.00810409	    103.55346758	     14.32000947	     -3.44521471	    -25.44634794	     36.90074960	     89.77376415
      1.18000000	      2.94677336	      5.17611588	     93.11534767	     -0.23619095	      0.96432291	     -0.41559580	      7.97062563	      4.98333229	    -11.34380021	     19.04247235	      0.33235384	      4.29189749	     -2.73484460	     -7.50000188	      8.90598681	     -6.51193218	     -2.27209904	     66.41307298	      1.15912679	    -22.10677623	    -27.63128209	     -7.50000188	    -16.88517250	      4.97807504	     -0.31842129	      0.62410867	     -6.22779334	    -23.30674581	     59.41498275	    103.39854683	     14.15330326	     -3.46331424	    -25.44053201	     36.58582524	     89.66173993
      1.19000000	      2.99471382	      4.59589065	     93.36263114	     -0.23561166	      0.96495042	     -0.42561069	      7.62771762	      5.13942364	    -11.44837449	     18.45502246	      0.32210091	      4.73857501	     -2.45507958	     -7.50000180	     11.45272682	     -6.58432773	     -2.25516724	     67.34338015	      1.17536371	    -19.07538842	    -28.31590967	     -7.50000180	    -16.34601027	      4.97737049	     -0.23333028	      0.90579197	     -6.44896180	    -22.69818080	     59.80405503	    103.17337230	     13.71090711	     -3.49893825	    -25.45404762	     36.14531792	     89.56581776
      1.20000000	      2.64504910	      4.49298787	     93.32742777	     -0.23473659	      0.96647455	     -0.43541075	      6.79399053	      4.94670025	    -11.05721013	     17.96347543	      0.31352179	      4.95092526	     -2.33936673	     -7.50000180	     13.20922825	     -6.21340391	     -2.58975399	     67.62222369	      1.18023045	    -17.00730994	    -29.57620557	     -7.50000180	    -16.51363267	      4.49444682	     -0.01935142	      1.45132366	     -6.47892063	    -22.49852021	     60.21697970	    103.27787586	     13.36244258	     -3.63309202	    -25.51528022	     35.88342686	     89.60058356
      1.21000000	      2.36650343	      4.20686885	     93.00809732	     -0.23363119	      0.96741515	     -0.44555177	      6.19960508	      4.80679005	    -10.61997148	     17.55553949	      0.30640197	      5.51398132	     -2.18901813	     -7.50000175	     15.00523832	     -5.99754939	     -3.31792494	     67.61704648	      1.18014009	    -14.53053295	    -29.93269542	     -7.50000175	    -16.37950881	      4.03379264	      0.46555811	      1.84956307	     -6.66892495	    -21.90168152	     60.58960553	    103.12147719	     12.87091331	     -3.68646007	    -25.65615678	     35.68956482	     89.48208359
      1.22000000	      2.02578985	      4.12944020	     92.86276774	     -0.23250408	      0.96856087	     -0.45596355	      5.31297342	      4.66021544	    -10.02990515	     17.07400257	      0.29799756	      5.95508763	     -2.26531562	     -7.50000171	     16.42236256	     -5.73561208	     -3.94246076	     67.19808799	      1.17282789	    -12.28574128	    -30.19944177	     -7.50000171	    -16.44095769	      3.52466208	      0.68893208	      2.31331425	     -6.70838387	    -21.45080168	     60.97152596	    103.07935550	     12.25994982	     -3.86727568	    -25.83110431	     35.61688545	     89.42975190
      1.23000000	      1.87291226	      3.97539034	     92.49287456	     -0.23102402	      0.96944606	     -0.46579948	      4.42001016	      4.64912774	    -10.04148283	     16.26018250	      0.28379372	      6.19139748	     -1.52503932	     -7.50000167	     17.90008221	     -5.76017539	     -4.77350896	     66.55326013	      1.16157352	    -10.32750224	    -30.18026895	     -7.50000167	    -16.55175637	      3.17767220	      1.17429918	      2.84383713	     -6.88805869	    -20.90634966	     61.46017587	    103.16186035	     11.77630819	     -3.98908952	    -26.08740517	     35.49300746	     89.44857762
      1.24000000	      1.58158696	      3.94626397	     92.11587177	     -0.22975575	      0.97038438	     -0.47595385	      3.49024780	      4.43793634	    -10.07101069	     15.71346269	      0.27425166	      6.61041429	     -0.60968463	     -7.50000161	     19.01387832	     -5.65741819	     -5.73247441	     65.43779300	      1.14210494	     -8.55432815	    -29.85986537	     -7.50000161	    -16.70888629	      2.69309764	      1.55643061	      3.37051704	     -7.02842619	    -20.30864665	     61.85876442	    103.15803993	     11.20624510	     -4.11529481	    -26.50832285	     35.33744901	     89.43271147
      1.25000000	      1.25715333	      3.67473819	     91.79302696	     -0.22856494	      0.97065945	     -0.48601396	      2.92330315	      4.20028792	     -9.77430408	     15.35411122	      0.26797979	      7.02845111	     -0.30055299	     -7.50000158	     20.30977731	     -5.39692177	     -6.50019178	     64.00911729	      1.11716985	     -7.20481205	    -29.76193931	     -7.50000158	    -16.65266329	      2.18893094	      1.86313161	      3.79355769	     -7.03441549	    -19.99008623	     62.42988341	    103.06703202	     10.61721194	     -4.32844284	    -26.78698492	     35.26480209	     89.32797341
      1.26000000	      0.94455070	      4.05327619	     91.26651602	     -0.22725121	      0.97164015	     -0.49655810	      1.58622658	      3.93985787	     -9.74606505	     14.96597615	      0.26120556	      7.71106418	      0.68471696	     -7.50000151	     20.66225090	     -5.19750515	     -7.40745679	     62.20597620	      1.08569910	     -5.87910148	    -28.88491736	     -7.50000151	    -17.18401125	      1.65789290	      2.46415871	      4.26105575	     -7.35098058	    -19.29489353	     62.98036681	    103.12252707	     10.07032554	     -4.29124515	    -27.46465063	     35.18125465	     89.29336596
      1.27000000	      0.88228668	      3.75087807	     90.94436661	     -0.22597040	      0.97139885	     -0.50679754	      1.06363256	      3.92810763	     -9.89440896	     14.58777294	      0.25460467	      7.93623157	      1.15786195	     -7.50000150	     21.78368062	     -5.26724759	     -8.19676815	     60.19978851	      1.05068452	     -5.26401869	    -28.54567576	     -7.50000150	    -16.99240416	      1.46057159	      2.78890127	      4.66535170	     -7.33991024	    -19.02387802	     63.52689719	    103.11132056	      9.33249938	     -4.48564722	    -27.73829187	     34.99410543	     89.23144977
      1.28000000	      0.58638105	      3.94601311	     90.28372941	     -0.22447066	      0.97174603	     -0.51720754	      0.08321106	      3.58206562	    -10.04668008	     14.46919731	      0.25253513	      8.75833634	      2.63821278	     -7.50000145	     22.05544833	     -5.15161660	     -9.37975577	     57.69501028	      1.00696789	     -4.22073382	    -27.33750967	     -7.50000145	    -17.33893274	      0.89203046	      3.47749288	      5.11315868	     -7.63271802	    -18.35729763	     63.97275404	    102.96292854	      8.74816107	     -4.51695844	    -28.44021109	     35.01384603	     89.07848307
      1.29000000	      0.42967519	      4.32999831	     89.90672350	     -0.22343490	      0.97210746	     -0.52760410	     -1.18755212	      3.36156878	    -10.57259021	     14.18922754	      0.24764874	      9.29466164	      4.23508775	     -7.50000126	     21.97254388	     -5.20575657	    -10.64352885	     54.79286078	      0.95631583	     -3.48780333	    -26.09494536	     -7.50000126	    -17.89733459	      0.59236411	      3.78330978	      5.64721065	     -7.91495626	    -17.57352763	     64.46449316	    101.32081720	      8.34746959	     -4.38724486	    -29.68074027	     34.61420311	     87.31362427
      1.30000000	      0.40365372	      4.54025495	     89.40213348	     -0.22227501	      0.97186603	     -0.53819295	     -2.23912780	      3.30668637	    -10.71986346	     13.94406663	      0.24336987	      9.92776921	      5.27610672	     -7.50000111	     22.02482594	     -5.31069222	    -11.77206084	     51.76192431	      0.90341601	     -2.94500693	    -25.11417143	     -7.50000111	    -18.23684075	      0.40944712	      4.27779220	      6.00402488	     -8.24294661	    -16.84073840	     65.13462187	     99.86437378	      7.59524146	     -4.40918256	    -30.18872720	     34.68514010	     85.84033346
      1.31000000	      0.36485980	      4.70197286	     88.82942801	     -0.22133410	      0.97140904	     -0.54893628	     -3.19694310	      3.18782652	    -10.83760546	     13.81562492	      0.24112814	     10.42248080	      6.15903167	     -7.50000106	     21.97553338	     -5.29895508	    -12.88166015	     48.40742260	      0.84486891	     -2.62292679	    -24.01359364	     -7.50000106	    -18.46789119	      0.22654295	      4.87653389	      6.35502222	     -8.57018131	    -16.34962111	     65.68219682	    100.33354256	      7.08877038	     -4.36625067	    -31.05785746	     34.18922019	     86.11796779
